<svg width="64" height="64" viewBox="0 0 64 64" fill="none" xmlns="http://www.w3.org/2000/svg">
<g opacity="0.95" clip-path="url(#clip0)">
<path d="M62.9333 69.7961H56.5333V36.7295C56.5333 36.1404 56.0557 35.6628 55.4667 35.6628H34.1333C33.5443 35.6628 33.0667 36.1404 33.0667 36.7295V69.7961H27.7333V64.4628C27.728 59.7521 23.9107 55.9348 19.2 55.9295V52.4233C20.8109 51.3076 21.9145 49.5995 22.2699 47.6724L23.4485 41.1871C23.4604 41.1241 23.4665 41.0601 23.4667 40.9961C23.4633 40.1791 23.3404 39.3669 23.1019 38.5855C23.3315 38.3872 23.4645 38.0995 23.4667 37.7961C23.462 33.6744 20.1217 30.3341 16 30.3295H13.8667C10.1565 30.3341 7.0108 33.0581 6.47573 36.7295H3.2V38.8628H6.6848C6.49867 39.5588 6.40293 40.2757 6.4 40.9961C6.40013 41.0601 6.40627 41.1241 6.41813 41.1871L7.59147 47.6724C7.94867 49.6001 9.05413 51.3081 10.6667 52.4233V55.9295C5.956 55.9348 2.13867 59.7521 2.13333 64.4628V69.7961H1.06667C0.4776 69.7961 0 70.2737 0 70.8628V93.2628C0 93.8519 0.4776 94.3295 1.06667 94.3295H62.9333C63.5224 94.3295 64 93.8519 64 93.2628V70.8628C64 70.2737 63.5224 69.7961 62.9333 69.7961ZM41.6 37.7961H48V40.9961H41.6V37.7961ZM35.2 37.7961H39.4667V42.0628C39.4667 42.6519 39.9443 43.1295 40.5333 43.1295H49.0667C49.6557 43.1295 50.1333 42.6519 50.1333 42.0628V37.7961H54.4V52.7295H35.2V37.7961ZM48 54.8628V58.0628H41.6V54.8628H48ZM35.2 54.8628H39.4667V59.1295C39.4667 59.7185 39.9443 60.1961 40.5333 60.1961H49.0667C49.6557 60.1961 50.1333 59.7185 50.1333 59.1295V54.8628H54.4V69.7961H35.2V54.8628ZM25.6 64.4628V69.7961H23.4667V64.4628H21.3333V69.7961H16V59.1295L18.56 61.0495L19.84 59.3428L18.1333 58.0628H19.2C22.7332 58.0663 25.5965 60.9296 25.6 64.4628ZM12.8 55.9295V53.4591C14.1867 53.9085 15.68 53.9085 17.0667 53.4591V55.9295H12.8ZM13.8667 32.4628H16C18.5336 32.4656 20.7167 34.2477 21.2267 36.7295H8.64C9.15 34.2477 11.3331 32.4656 13.8667 32.4628ZM8.53333 40.9033C8.5436 40.2072 8.66973 39.5175 8.90667 38.8628H20.96C21.1281 39.3325 21.2399 39.8205 21.2928 40.3167L18.6101 38.9748C18.3825 38.8613 18.1219 38.8331 17.8752 38.8948L8.5952 41.2159L8.53333 40.9033ZM9.70027 47.2916L8.9728 43.3183L18.0096 41.0601L21.0293 42.5705L20.176 47.2916C19.65 50.1844 16.8787 52.1031 13.9859 51.5772C11.8043 51.1805 10.0969 49.4732 9.70027 47.2916ZM4.26667 64.4628C4.27013 60.9296 7.13347 58.0663 10.6667 58.0628H11.7333L10.0267 59.3428L11.3067 61.0495L13.8667 59.1295V69.7961H8.53333V64.4628H6.4V69.7961H4.26667V64.4628ZM61.8667 92.1961H2.13333V76.1961H61.8667V92.1961ZM61.8667 74.0628H2.13333V71.9295H3.2H61.8667V74.0628Z" fill="#E1C59F"/>
<path d="M39.4668 49.5295H37.3335V51.6629H39.4668V49.5295Z" fill="#E1C59F"/>
<path d="M43.7329 49.5295H41.5996V51.6629H43.7329V49.5295Z" fill="#E1C59F"/>
<path d="M48 49.5295H45.8667V51.6629H48V49.5295Z" fill="#E1C59F"/>
</g>
<defs>
<clipPath id="clip0">
<rect width="64" height="64" fill="white"/>
</clipPath>
</defs>
</svg>
