<svg width="64" height="64" viewBox="0 0 64 64" fill="none" xmlns="http://www.w3.org/2000/svg">
<g opacity="0.95" clip-path="url(#clip0)">
<path d="M41 62C39.346 62 38 63.346 38 65C38 66.654 39.346 68 41 68C42.654 68 44 66.654 44 65C44 63.346 42.654 62 41 62ZM41 66C40.448 66 40 65.551 40 65C40 64.449 40.448 64 41 64C41.552 64 42 64.449 42 65C42 65.551 41.551 66 41 66Z" fill="#E1C59F"/>
<path d="M17 52C15.346 52 14 53.346 14 55C14 56.654 15.346 58 17 58C18.654 58 20 56.654 20 55C20 53.346 18.654 52 17 52ZM17 56C16.448 56 16 55.551 16 55C16 54.449 16.448 54 17 54C17.552 54 18 54.449 18 55C18 55.551 17.551 56 17 56Z" fill="#E1C59F"/>
<path d="M54 50.586L51.414 48H42V56H54V50.586ZM52 54H44V50H50.586L52 51.414V54Z" fill="#E1C59F"/>
<path d="M58 19C58 16.243 55.757 14 53 14C50.243 14 48 16.243 48 19C48 21.757 50.243 24 53 24C55.757 24 58 21.757 58 19ZM50 19C50 17.346 51.346 16 53 16C54.654 16 56 17.346 56 19C56 20.654 54.654 22 53 22C51.346 22 50 20.654 50 19Z" fill="#E1C59F"/>
<path d="M36 19C36 16.243 33.757 14 31 14C28.243 14 26 16.243 26 19C26 21.757 28.243 24 31 24C33.757 24 36 21.757 36 19ZM28 19C28 17.346 29.346 16 31 16C32.654 16 34 17.346 34 19C34 20.654 32.654 22 31 22C29.346 22 28 20.654 28 19Z" fill="#E1C59F"/>
<path d="M14 19C14 16.243 11.757 14 9 14C6.243 14 4 16.243 4 19C4 21.757 6.243 24 9 24C11.757 24 14 21.757 14 19ZM6 19C6 17.346 7.346 16 9 16C10.654 16 12 17.346 12 19C12 20.654 10.654 22 9 22C7.346 22 6 20.654 6 19Z" fill="#E1C59F"/>
<path d="M54 40V33.785C54.561 33.562 55.054 33.176 55.369 32.64L60.792 23.342C61.582 21.988 62 20.442 62 18.872C62 13.98 58.021 10 53.129 10H52.872C47.98 10 44 13.98 44 18.872C44 20.441 44.418 21.986 45.208 23.342L50.634 32.642C50.948 33.177 51.44 33.562 52 33.785V38H42V44H40V41C40 39.346 38.654 38 37 38H32V33.785C32.561 33.562 33.054 33.176 33.369 32.64L38.792 23.342C39.582 21.988 40 20.442 40 18.872C40 13.98 36.021 10 31.129 10H30.872C25.98 10 22 13.98 22 18.872C22 20.441 22.418 21.986 23.208 23.342L28.634 32.642C28.948 33.177 29.44 33.562 30 33.785V38H10V33.785C10.561 33.562 11.054 33.176 11.369 32.64L16.792 23.342C17.582 21.988 18 20.442 18 18.872C18 13.98 14.021 10 9.129 10H8.872C3.98 10 0 13.98 0 18.872C0 20.441 0.418 21.986 1.208 23.342L6.634 32.642C6.948 33.177 7.44 33.562 8 33.785V38H7C5.346 38 4 39.346 4 41V65C4 66.654 5.346 68 7 68H10.685C11.811 70.361 14.215 72 17 72C19.785 72 22.188 70.361 23.315 68H34.685C35.811 70.361 38.215 72 41 72C43.785 72 46.188 70.361 47.315 68H55C56.654 68 58 66.654 58 65V48.586L53.414 44H44V40H54ZM46.935 22.334C46.323 21.284 45.999 20.087 45.999 18.872C45.999 15.083 49.082 12 52.871 12H53.128C56.917 12 59.999 15.083 59.999 18.872C59.999 20.088 59.676 21.285 59.063 22.334L53.641 31.63C53.374 32.086 52.623 32.086 52.359 31.632L46.935 22.334ZM24.935 22.334C24.323 21.284 23.999 20.087 23.999 18.872C23.999 15.083 27.082 12 30.871 12H31.128C34.917 12 37.999 15.083 37.999 18.872C37.999 20.088 37.676 21.285 37.063 22.334L31.641 31.63C31.374 32.086 30.623 32.086 30.359 31.632L24.935 22.334ZM2.935 22.334C2.323 21.284 1.999 20.087 1.999 18.872C1.999 15.083 5.082 12 8.871 12H9.128C12.917 12 15.999 15.083 15.999 18.872C15.999 20.088 15.676 21.285 15.063 22.334L9.641 31.63C9.374 32.086 8.623 32.086 8.359 31.632L2.935 22.334ZM7 40H37C37.552 40 38 40.449 38 41V58.685C36.55 59.377 35.377 60.55 34.685 62H23.315C22.189 59.639 19.785 58 17 58C14.215 58 11.812 59.639 10.685 62H6V41C6 40.449 6.448 40 7 40ZM7 66C6.448 66 6 65.551 6 65V64H10.08C10.033 64.328 10 64.66 10 65C10 65.34 10.033 65.672 10.08 66H7ZM17 70C14.243 70 12 67.757 12 65C12 62.243 14.243 60 17 60C19.757 60 22 62.243 22 65C22 67.757 19.756 70 17 70ZM23.92 66C23.967 65.672 24 65.34 24 65C24 64.66 23.967 64.328 23.92 64H34.08C34.033 64.328 34 64.66 34 65C34 65.34 34.033 65.672 34.08 66H23.92ZM41 70C38.243 70 36 67.757 36 65C36 62.243 38.243 60 41 60C43.757 60 46 62.243 46 65C46 67.757 43.756 70 41 70ZM55 66H47.92C47.967 65.672 48 65.34 48 65C48 64.66 47.967 64.328 47.92 64H56V65C56 65.551 55.551 66 55 66ZM56 49.414V62H47.315C46.189 59.639 43.785 58 41 58C40.66 58 40.328 58.033 40 58.08V46H52.586L56 49.414Z" fill="#E1C59F"/>
<path d="M8 48H10V50H8V48Z" fill="#E1C59F"/>
<path d="M8 44H10V46H8V44Z" fill="#E1C59F"/>
<path d="M8 40H10V42H8V40Z" fill="#E1C59F"/>
</g>
<defs>
<clipPath id="clip0">
<rect width="64" height="64" fill="white"/>
</clipPath>
</defs>
</svg>
