<svg width="64" height="64" viewBox="0 0 64 64" fill="none" xmlns="http://www.w3.org/2000/svg">
<g opacity="0.95">
<path d="M62 21.0001C62.552 21.0001 63 20.5521 63 20.0001V16.0001C63 15.4481 62.552 15.0001 62 15.0001H60.236L32.447 1.10514C32.166 0.96414 31.834 0.96414 31.552 1.10514L3.764 15.0001H2C1.448 15.0001 1 15.4481 1 16.0001V20.0001C1 20.5521 1.448 21.0001 2 21.0001H5V49.0001H4C3.448 49.0001 3 49.4481 3 50.0001V57.0001H2C1.448 57.0001 1 57.4481 1 58.0001V62.0001C1 62.5521 1.448 63.0001 2 63.0001H62C62.552 63.0001 63 62.5521 63 62.0001V58.0001C63 57.4481 62.552 57.0001 62 57.0001H61V50.0001C61 49.4481 60.552 49.0001 60 49.0001H59V21.0001H62ZM61 19.0001H58H41V17.0001H61V19.0001ZM25 14.0001L31.4 18.8001C31.578 18.9331 31.789 19.0001 32 19.0001C32.211 19.0001 32.422 18.9331 32.6 18.8001L39 14.0001V21.0001H25V14.0001ZM27 13.0001H37L32 16.7501L27 13.0001ZM32 3.11814L55.764 15.0001H41V12.0001C41 11.4481 40.552 11.0001 40 11.0001H24C23.448 11.0001 23 11.4481 23 12.0001V15.0001H8.236L32 3.11814ZM3 17.0001H23V19.0001H6H3V17.0001ZM5 51.0001H21V53.0001H20C19.448 53.0001 19 53.4481 19 54.0001V57.0001H5V51.0001ZM21 57.0001V55.0001H43V57.0001H21ZM39 49.0001H33V31.0001H39V49.0001ZM31 49.0001H25V31.0001H31V49.0001ZM41 51.0001V53.0001H23V51.0001H41ZM61 61.0001H3V59.0001H61V61.0001ZM45 57.0001V54.0001C45 53.4481 44.552 53.0001 44 53.0001H43V51.0001H59V57.0001H45ZM57 49.0001H42H41V30.0001C41 29.4481 40.552 29.0001 40 29.0001H24C23.448 29.0001 23 29.4481 23 30.0001V49.0001H22H7V21.0001H23V22.0001C23 22.5521 23.448 23.0001 24 23.0001H40C40.552 23.0001 41 22.5521 41 22.0001V21.0001H57V49.0001Z" fill="#E1C59F"/>
<path d="M20 25H10C9.448 25 9 25.448 9 26V46C9 46.552 9.448 47 10 47H20C20.552 47 21 46.552 21 46V26C21 25.448 20.552 25 20 25ZM19 27V35H11V27H19ZM11 45V37H19V45H11Z" fill="#E1C59F"/>
<path d="M44 47H54C54.552 47 55 46.552 55 46V26C55 25.448 54.552 25 54 25H44C43.448 25 43 25.448 43 26V46C43 46.552 43.448 47 44 47ZM45 45V37H53V45H45ZM53 27V35H45V27H53Z" fill="#E1C59F"/>
</g>
</svg>
