<svg width="19" height="19" viewBox="0 0 19 19" fill="none" xmlns="http://www.w3.org/2000/svg">
<g opacity="0.4">
<path d="M9.5 0C14.7464 0 19 3.72161 19 8.3125C19 10.9363 17.6077 13.2721 15.4375 14.7957V19L11.2759 16.4748C10.6999 16.5698 10.1074 16.625 9.5 16.625C4.25302 16.625 0 12.9034 0 8.3125C0 3.72161 4.25302 0 9.5 0ZM9.5 15.4375C10.1935 15.4375 10.8633 15.3567 11.5069 15.2196L14.3023 16.8999L14.2649 14.1461C16.4077 12.8571 17.8125 10.7267 17.8125 8.3125C17.8125 4.37773 14.0909 1.1875 9.5 1.1875C4.90911 1.1875 1.1875 4.37773 1.1875 8.3125C1.1875 12.2473 4.90911 15.4375 9.5 15.4375Z" fill="#474747"/>
</g>
</svg>
