<svg width="19" height="19" viewBox="0 0 19 19" fill="none" xmlns="http://www.w3.org/2000/svg">
<g opacity="0.4" clip-path="url(#clip0)">
<path d="M17.4653 2.69878C16.4704 1.70387 15.1533 1.16009 13.7475 1.16009C12.3418 1.16009 11.0206 1.7079 10.0257 2.70281L9.50606 3.22242L8.97839 2.69475C7.98348 1.69984 6.65827 1.14801 5.25251 1.14801C3.85077 1.14801 2.52959 1.69581 1.53871 2.6867C0.543799 3.68161 -0.00400592 5.00278 2.20561e-05 6.40855C2.20561e-05 7.81431 0.551855 9.13146 1.54677 10.1264L9.11131 17.6909C9.21604 17.7956 9.35702 17.852 9.49397 17.852C9.63092 17.852 9.7719 17.7997 9.87663 17.6949L17.4573 10.1425C18.4522 9.14757 19 7.82639 19 6.42063C19.004 5.01487 18.4603 3.69369 17.4653 2.69878ZM16.692 9.37314L9.49397 16.5429L2.31208 9.36105C1.5226 8.57157 1.08758 7.5243 1.08758 6.40855C1.08758 5.2928 1.51857 4.24552 2.30805 3.46007C3.09351 2.67461 4.14079 2.23959 5.25251 2.23959C6.36826 2.23959 7.41956 2.67461 8.20905 3.4641L9.11937 4.37442C9.33285 4.5879 9.67523 4.5879 9.88871 4.37442L10.791 3.47215C11.5805 2.68267 12.6318 2.24765 13.7435 2.24765C14.8552 2.24765 15.9025 2.68267 16.692 3.46812C17.4815 4.25761 17.9124 5.30488 17.9124 6.42063C17.9165 7.53638 17.4815 8.58365 16.692 9.37314Z" fill="#474747"/>
</g>
<defs>
<clipPath id="clip0">
<rect width="19" height="19" fill="white"/>
</clipPath>
</defs>
</svg>
