<svg width="19" height="19" viewBox="0 0 19 19" fill="none" xmlns="http://www.w3.org/2000/svg">
<g opacity="0.4" clip-path="url(#clip0)">
<path d="M18.8375 0.163889C18.68 0.00639701 18.4438 -0.0420306 18.2371 0.0406489L0.350411 7.19525C0.145753 7.27711 0.00870867 7.47201 0.000841501 7.69233C-0.00698856 7.91261 0.115917 8.11675 0.31423 8.21293L7.36752 11.6337L10.7883 18.687C10.8816 18.8794 11.0764 19.0008 11.289 19.0008C11.2957 19.0008 11.3023 19.0006 11.3089 19.0004C11.5292 18.9926 11.7242 18.8555 11.806 18.6509L18.9607 0.764243C19.0433 0.55747 18.9949 0.321344 18.8375 0.163889ZM1.93364 7.76102L16.1326 2.08148L7.67063 10.5434L1.93364 7.76102ZM11.2402 17.0676L8.45783 11.3306L16.9199 2.86864L11.2402 17.0676Z" fill="#474747"/>
</g>
<defs>
<clipPath id="clip0">
<rect width="19" height="19" fill="white"/>
</clipPath>
</defs>
</svg>
