<svg width="16" height="16" viewBox="0 0 16 16" fill="none" xmlns="http://www.w3.org/2000/svg">
<g opacity="0.5">
<path d="M13.0208 0H2.97919C1.33647 0 0 1.33647 0 2.97916V13.0208C0 14.6635 1.33647 16 2.97919 16H13.0208C14.6635 16 16 14.6635 16 13.0208V2.97916C16 1.33647 14.6635 0 13.0208 0ZM15.0625 13.0208C15.0625 14.1466 14.1466 15.0625 13.0208 15.0625H2.97919C1.85341 15.0625 0.9375 14.1466 0.9375 13.0208V2.97916C0.9375 1.85341 1.85341 0.9375 2.97919 0.9375H13.0208C14.1466 0.9375 15.0625 1.85341 15.0625 2.97916V13.0208Z" fill="black"/>
<path d="M7.9998 4.51874C6.08021 4.51874 4.51855 6.08042 4.51855 7.99999C4.51855 9.91955 6.08021 11.4812 7.9998 11.4812C9.9194 11.4812 11.4811 9.91958 11.4811 7.99999C11.4811 6.08039 9.9194 4.51874 7.9998 4.51874ZM7.9998 10.5437C6.59715 10.5437 5.45605 9.40261 5.45605 7.99999C5.45605 6.59736 6.59718 5.45624 7.9998 5.45624C9.40243 5.45624 10.5436 6.59736 10.5436 7.99999C10.5436 9.40261 9.40246 10.5437 7.9998 10.5437Z" fill="black"/>
<path d="M12.8501 3.14967C12.7629 3.06248 12.642 3.01245 12.5186 3.01245C12.3951 3.01245 12.2742 3.06248 12.187 3.14967C12.0998 3.23686 12.0498 3.35779 12.0498 3.4812C12.0498 3.60464 12.0998 3.72558 12.187 3.81276C12.2745 3.89995 12.3951 3.94995 12.5186 3.94995C12.642 3.94995 12.7626 3.89995 12.8501 3.81276C12.9373 3.72526 12.9873 3.60464 12.9873 3.4812C12.9873 3.35779 12.9373 3.23714 12.8501 3.14967Z" fill="black"/>
</g>
</svg>
