<svg width="19" height="19" viewBox="0 0 19 19" fill="none" xmlns="http://www.w3.org/2000/svg">
<g clip-path="url(#clip0)">
<path d="M10.0431 8.23673C9.83451 8.4453 9.83451 8.77981 10.0431 8.98838C10.9049 9.85023 10.9049 11.2512 10.0431 12.1131L5.5174 16.6388C4.65555 17.5006 3.25456 17.5006 2.39271 16.6388L1.71189 15.9579C0.850041 15.0961 0.850041 13.6951 1.71189 12.8332L6.23757 8.30756C6.44615 8.09899 6.44615 7.76448 6.23757 7.55591C6.029 7.34733 5.69449 7.34733 5.48592 7.55591L0.960232 12.0816C0.342378 12.6994 0 13.5219 0 14.3956C0 15.2692 0.338442 16.0917 0.960232 16.7096L1.64105 17.3904C2.27858 18.0279 3.11682 18.3467 3.95505 18.3467C4.79329 18.3467 5.63152 18.0279 6.26906 17.3904L10.7947 12.8647C12.0698 11.5897 12.0698 9.51179 10.7947 8.23673C10.5901 8.02815 10.2517 8.02815 10.0431 8.23673Z" fill="#C99A5A"/>
<path d="M18.0437 2.29038L17.3629 1.60956C16.0879 0.334493 14.01 0.334493 12.7349 1.60956L8.20923 6.13525C6.93416 7.41032 6.93416 9.4882 8.20923 10.7633C8.4178 10.9718 8.75231 10.9718 8.96088 10.7633C9.16946 10.5547 9.16946 10.2202 8.96088 10.0116C8.09904 9.14976 8.09904 7.74876 8.96088 6.88691L13.4866 2.36122C14.3484 1.49937 15.7494 1.49937 16.6113 2.36122L17.2921 3.04204C18.1539 3.90389 18.1539 5.30488 17.2921 6.16673L12.7664 10.6924C12.5578 10.901 12.5578 11.2355 12.7664 11.4441C12.8687 11.5464 13.0065 11.6015 13.1403 11.6015C13.2741 11.6015 13.4118 11.5503 13.5141 11.4441L18.0398 6.91839C18.6577 6.30054 19 5.47804 19 4.60439C19 3.73073 18.6616 2.90823 18.0437 2.29038Z" fill="#C99A5A"/>
</g>
<defs>
<clipPath id="clip0">
<rect width="19" height="19" fill="white"/>
</clipPath>
</defs>
</svg>
